<svg xmlns="http://www.w3.org/2000/svg" width="1600" height="800" viewBox="0 0 1600 800" role="img" aria-label="Menu OTP — the macOS menu bar dropdown, with a code just copied">
  <defs>
    <linearGradient id="bg" x1="0" y1="0" x2="0" y2="1">
      <stop offset="0" stop-color="#fafafa"/>
      <stop offset="1" stop-color="#e9e9ee"/>
    </linearGradient>
    <filter id="drop" x="-20%" y="-20%" width="140%" height="150%">
      <feDropShadow dx="0" dy="18" stdDeviation="24" flood-color="#000" flood-opacity="0.22"/>
    </filter>
  </defs>
  <rect width="1600" height="800" fill="url(#bg)"/>
  <g font-family="ui-sans-serif, system-ui, -apple-system, 'Segoe UI', Roboto, Helvetica, Arial, sans-serif">
    <text x="128" y="246" font-size="26" font-weight="700" letter-spacing="7" fill="#71717a">MACOS MENU BAR</text>
    <text x="124" y="372" font-size="112" font-weight="800" letter-spacing="-3" fill="#18181b">Menu OTP</text>
    <text x="128" y="442" font-size="34" font-weight="500" fill="#52525b">Click an account — code on the clipboard.</text>
    <text x="128" y="700" font-size="29" font-weight="500" fill="#71717a">Swift 6 · AES-256 · nothing leaves your Mac.</text>
  </g>
  <g filter="url(#drop)">
    <rect x="800" y="84" width="700" height="638" rx="14" fill="#ffffff" stroke="#d4d4d8" stroke-width="1.5"/>
  </g>
  <g font-family="ui-sans-serif, system-ui, -apple-system, 'Segoe UI', Roboto, Helvetica, Arial, sans-serif" font-size="23">
    <text x="832" y="128" font-weight="700" fill="#1f1f23">Menu OTP</text>
    <rect x="828" y="152" width="644" height="1.5" fill="#e4e4e7"/>
    <g transform="translate(832 194)" fill="#4b4b55"><rect x="1" y="1" width="22" height="22" rx="5"/><path d="M9.4 9.9c0-.8 1.9-1 3.2-.5l.5-2.1a7.4 7.4 0 0 0-2.7-.5c-2.2 0-3.6 1.1-3.6 2.9 0 2.6 3.5 2.2 3.5 3.3 0 .5-.5.7-1.2.7-.9 0-2-.4-2.7-.8l-.5 2.2c.8.4 2 .6 3.1.6 2.2 0 3.6-1 3.6-2.8 0-2.8-3.4-2.4-3.4-3.3z" fill="#ffffff"/></g>
    <text x="880" y="214" font-weight="400" fill="#2a2a2e">Stripe: jane@example.com</text>
    <g transform="translate(832 260)" fill="#4b4b55"><circle cx="12" cy="12" r="11"/><path d="M12 3.4A8.6 8.6 0 0 0 9.3 20.2c.4.1.6-.2.6-.4v-1.6c-2.2.5-2.7-1-2.7-1-.4-1-1-1.2-1-1.2-.8-.5 0-.5 0-.5.8.1 1.3.9 1.3.9.7 1.3 1.9 1 2.4.7.1-.5.3-.9.5-1.1-1.9-.2-3.9-1-3.9-4.3 0-.9.3-1.7.9-2.3-.1-.2-.4-1.1.1-2.3 0 0 .7-.2 2.3 .9a7.8 7.8 0 0 1 4.2 0c1.6-1.1 2.3-.9 2.3-.9.5 1.2.2 2.1.1 2.3.6.6.9 1.4.9 2.3 0 3.3-2 4.1-3.9 4.3.3.3.6.8.6 1.7v2.5c0 .2.2.5.6.4A8.6 8.6 0 0 0 12 3.4z" fill="#ffffff"/></g>
    <text x="880" y="280" font-weight="400" fill="#2a2a2e">GitHub: janesmith</text>
    <g transform="translate(832 326)" fill="#4b4b55"><rect x="1" y="1" width="22" height="22" rx="5"/><path d="M12 5.4 18.6 9v6L12 18.6 5.4 15V9z" fill="none" stroke="#ffffff" stroke-width="1.7" stroke-linejoin="round"/><path d="M12 11.9 18.6 9M12 11.9 5.4 9M12 11.9v6.7" fill="none" stroke="#ffffff" stroke-width="1.7"/></g>
    <text x="880" y="346" font-weight="400" fill="#2a2a2e">Amazon Web Services: user@123456789012</text>
    <g transform="translate(832 392)" fill="#4b4b55"><rect x="1" y="1" width="22" height="22" rx="5"/><path d="M17.1 16.4H7.4a2.3 2.3 0 0 1 .4-4.6h.4a4 4 0 0 1 7.5-.7 2.7 2.7 0 0 1 1.4 5.3z" fill="#ffffff"/></g>
    <text x="880" y="412" font-weight="400" fill="#2a2a2e">Cloudflare: jane@example.com</text>
    <g transform="translate(832 458)" fill="#4b4b55"><rect x="1" y="1" width="22" height="22" rx="5"/><path d="M5.4 8.6h13.2v6.8h-3.7V10h-1.7v5.4h-1.7V10H9.1v5.4H5.4z" fill="#ffffff"/></g>
    <text x="880" y="478" font-weight="400" fill="#2a2a2e">npm: janesmith</text>
    <rect x="828" y="510" width="644" height="1.5" fill="#e4e4e7"/>
    <text x="832" y="567" font-weight="400" fill="#2a2a2e">Menu OTP Settings...</text>
    <text x="832" y="633" font-weight="400" fill="#2a2a2e">About Menu OTP</text>
    <text x="832" y="699" font-weight="400" fill="#2a2a2e">Quit Menu OTP</text>
    <text x="1468" y="699" text-anchor="end" font-weight="400" fill="#8a8a8a">⌘Q</text>
  </g>
  <g filter="url(#drop)">
    <rect x="124" y="500" width="600" height="96" rx="22" fill="#2050ca" stroke="#ffffff" stroke-width="7"/>
  </g>
  <g font-family="ui-sans-serif, system-ui, -apple-system, 'Segoe UI', Roboto, Helvetica, Arial, sans-serif" font-size="31" font-weight="700" fill="#ffffff">
    <text x="176" y="560">Stripe</text>
    <text x="368" y="560">Copied</text>
    <text x="672" y="560" text-anchor="end">693007</text>
  </g>
</svg>
